<svg width="19" height="20" viewBox="0 0 19 20" fill="none" xmlns="http://www.w3.org/2000/svg">
<path d="M18.9046 9.18491C18.5623 6.69597 17.2427 4.44464 15.2363 2.92616C13.2298 1.40769 10.7008 0.746468 8.20557 1.08796C5.71035 1.42944 3.45333 2.74567 1.93103 4.74708C0.40872 6.74849 -0.254172 9.27114 0.0881779 11.7601C0.370229 13.8201 1.31929 15.7318 2.79091 17.2042C4.26253 18.6767 6.17613 19.6292 8.24048 19.9169C8.66289 19.9721 9.08845 19.9998 9.51447 20C11.2357 20.0028 12.9246 19.5343 14.3973 18.6455C14.5006 18.5834 14.5907 18.5016 14.6624 18.4048C14.734 18.308 14.7859 18.198 14.815 18.0812C14.844 17.9644 14.8497 17.843 14.8318 17.724C14.8138 17.605 14.7725 17.4907 14.7103 17.3876C14.648 17.2845 14.566 17.1946 14.4689 17.1231C14.3719 17.0516 14.2616 16.9999 14.1445 16.9709C13.908 16.9124 13.6579 16.9499 13.4491 17.0754C12.4009 17.7029 11.2173 18.071 9.9973 18.1488C8.77727 18.2266 7.55631 18.0118 6.43655 17.5224C5.31679 17.0331 4.33079 16.2834 3.56103 15.336C2.79128 14.3887 2.26014 13.2712 2.01207 12.0771C1.76399 10.8831 1.80618 9.6471 2.13511 8.47264C2.46404 7.29817 3.07015 6.21934 3.90272 5.32641C4.7353 4.43348 5.77014 3.7524 6.92068 3.34016C8.07122 2.92791 9.304 2.79648 10.5159 2.95686C11.6416 3.10615 12.7198 3.50334 13.6726 4.11964C14.6253 4.73595 15.4287 5.55595 16.0245 6.52022C16.6203 7.48449 16.9936 8.56888 17.1174 9.69484C17.2411 10.8208 17.1123 11.9601 16.7401 13.0302C16.6435 13.2876 16.469 13.5085 16.2408 13.6625C16.0126 13.8164 15.7421 13.8956 15.4667 13.8892C15.1038 13.8888 14.7559 13.7447 14.4992 13.4888C14.2426 13.2328 14.0982 12.8858 14.0978 12.5238V6.86329C14.0978 6.62024 14.001 6.38714 13.8287 6.21528C13.6564 6.04341 13.4227 5.94686 13.179 5.94686C12.9354 5.94686 12.7017 6.04341 12.5294 6.21528C12.3571 6.38714 12.2603 6.62024 12.2603 6.86329V6.87184C11.5638 6.34749 10.732 6.03186 9.86219 5.96189C8.99241 5.89192 8.12064 6.07051 7.3489 6.47675C6.57717 6.883 5.9374 7.5001 5.50447 8.25582C5.07153 9.01155 4.86335 9.87464 4.90427 10.7441C4.94519 11.6135 5.23353 12.4534 5.73555 13.1653C6.23756 13.8773 6.93248 14.4319 7.73898 14.7642C8.54548 15.0965 9.43019 15.1929 10.2896 15.0419C11.149 14.891 11.9475 14.499 12.5916 13.9118C12.8519 14.4526 13.2597 14.9092 13.7682 15.2294C14.2767 15.5496 14.8653 15.7203 15.4667 15.7221C16.1241 15.7284 16.7671 15.5304 17.3064 15.1555C17.8458 14.7806 18.2548 14.2475 18.4765 13.6302C18.9716 12.2035 19.1184 10.6795 18.9046 9.18491ZM9.50405 13.2783C8.95892 13.2783 8.42604 13.117 7.97278 12.815C7.51952 12.5129 7.16625 12.0835 6.95763 11.5811C6.74902 11.0787 6.69444 10.526 6.80079 9.99264C6.90714 9.45933 7.16964 8.96946 7.55511 8.58496C7.94057 8.20047 8.43169 7.93863 8.96634 7.83254C9.501 7.72646 10.0552 7.78091 10.5588 7.98899C11.0625 8.19708 11.4929 8.54946 11.7958 9.00158C12.0986 9.4537 12.2603 9.98525 12.2603 10.529C12.2595 11.2579 11.9688 11.9567 11.4521 12.4721C10.9354 12.9876 10.2348 13.2775 9.50405 13.2783Z" fill="white" fill-opacity="0.8"/>
</svg>
