<svg width="23" height="27" viewBox="0 0 23 27" fill="none" xmlns="http://www.w3.org/2000/svg">
<path d="M11.7796 9.76546C11.131 9.76546 10.6698 10.0393 10.6698 10.4429V15.9342C10.6698 16.2801 11.131 16.626 11.7796 16.626C12.3994 16.626 12.9038 16.2801 12.9038 15.9342V10.4429C12.9038 10.0393 12.3994 9.76546 11.7796 9.76546Z" fill="white" fill-opacity="0.6"/>
<path d="M11.7801 6.37837C11.1171 6.37837 10.5983 6.854 10.5983 7.40169C10.5983 7.94938 11.1171 8.43944 11.7801 8.43944C12.4288 8.43944 12.9476 7.94938 12.9476 7.40169C12.9476 6.85405 12.4287 6.37837 11.7801 6.37837Z" fill="white" fill-opacity="0.6"/>
<path d="M11.7801 0.444C5.57836 0.444 0.560059 5.45975 0.560059 11.6575C0.560059 16.7183 3.89204 20.9204 8.38433 22.3476L10.936 26.1087C11.1258 26.3885 11.4419 26.556 11.7801 26.556C12.1182 26.556 12.4343 26.3885 12.6242 26.1087L15.1758 22.3476C19.6701 20.9198 23.0001 16.7161 23.0001 11.6575C23.0001 5.45582 17.9777 0.444 11.7801 0.444ZM14.261 20.492C14.0286 20.557 13.8269 20.7022 13.6915 20.9017L11.7801 23.7192L9.86863 20.9018C9.73317 20.7022 9.53147 20.557 9.29916 20.4921C5.47529 19.4229 2.60006 15.9062 2.60006 11.6575C2.60006 6.59919 6.71821 2.484 11.7801 2.484C16.8419 2.484 20.9601 6.59919 20.9601 11.6575C20.9601 15.9105 18.0806 19.4241 14.261 20.492Z" fill="white" fill-opacity="0.6"/>
</svg>
