<svg width="21" height="21" viewBox="0 0 21 21" fill="none" xmlns="http://www.w3.org/2000/svg">
<path d="M1.5 21C0.671631 21 0 20.3291 0 19.5V10.5C0 9.6709 0.671631 9 1.5 9C2.32837 9 3 9.6709 3 10.5V19.5C3 20.3291 2.32837 21 1.5 21Z" fill="url(#paint0_linear_2_1099)"/>
<path d="M7.5 21C6.67163 21 6 20.3291 6 19.5V1.5C6 0.670898 6.67163 0 7.5 0C8.32837 0 9 0.670898 9 1.5V19.5C9 20.3291 8.32837 21 7.5 21Z" fill="url(#paint1_linear_2_1099)"/>
<path d="M13.5 21C12.6709 21 12 20.3291 12 19.5V13.5C12 12.6709 12.6709 12 13.5 12C14.3291 12 15 12.6709 15 13.5V19.5C15 20.3291 14.3291 21 13.5 21Z" fill="url(#paint2_linear_2_1099)"/>
<path d="M19.5 21C18.6709 21 18 20.3291 18 19.5V7.5C18 6.6709 18.6709 6 19.5 6C20.3291 6 21 6.6709 21 7.5V19.5C21 20.3291 20.3291 21 19.5 21Z" fill="url(#paint3_linear_2_1099)"/>
<defs>
<linearGradient id="paint0_linear_2_1099" x1="0.244951" y1="15.6446" x2="3.00079" y2="15.6415" gradientUnits="userSpaceOnUse">
<stop stop-color="#189689"/>
<stop offset="1" stop-color="#03FBB5"/>
</linearGradient>
<linearGradient id="paint1_linear_2_1099" x1="6.24495" y1="11.6281" x2="9.00079" y2="11.6263" gradientUnits="userSpaceOnUse">
<stop stop-color="#189689"/>
<stop offset="1" stop-color="#03FBB5"/>
</linearGradient>
<linearGradient id="paint2_linear_2_1099" x1="12.245" y1="16.9835" x2="15.0008" y2="16.9793" gradientUnits="userSpaceOnUse">
<stop stop-color="#189689"/>
<stop offset="1" stop-color="#03FBB5"/>
</linearGradient>
<linearGradient id="paint3_linear_2_1099" x1="18.245" y1="14.3058" x2="21.0008" y2="14.3032" gradientUnits="userSpaceOnUse">
<stop stop-color="#189689"/>
<stop offset="1" stop-color="#03FBB5"/>
</linearGradient>
</defs>
</svg>
