<svg width="24" height="24" viewBox="0 0 24 24" fill="none" xmlns="http://www.w3.org/2000/svg">
<path d="M11.5 4.85714C14.0359 4.85714 16.0934 6.92255 16.0934 9.47253C16.0934 9.99851 15.6706 10.4249 15.149 10.4249C14.6274 10.4249 14.2046 9.99851 14.2046 9.47253C14.2046 7.97646 12.9946 6.7619 11.5 6.7619C10.9784 6.7619 10.5556 6.33551 10.5556 5.80952C10.5556 5.28354 10.9784 4.85714 11.5 4.85714Z" fill="white" fill-opacity="0.8"/>
<path fill-rule="evenodd" clip-rule="evenodd" d="M17.6443 12.2113C18.2184 11.2112 18.5468 10.0508 18.5468 8.81319C18.5468 5.0494 15.5091 2 11.764 2C8.0189 2 4.98117 5.0494 4.98117 8.81319C4.98117 10.0655 5.31747 11.2387 5.90422 12.2468L3.86195 17.8799C3.74879 18.192 3.72959 18.5303 3.80675 18.8523C4.02305 19.755 4.92642 20.3063 5.82449 20.0838L6.88011 19.8222L7.56365 20.7602C7.74238 21.0054 7.9842 21.1969 8.26329 21.314C9.11421 21.6712 10.0955 21.265 10.455 20.4067L11.7807 17.2415L13.1065 20.4067C13.466 21.265 14.4472 21.6712 15.2982 21.314C15.5772 21.1969 15.8191 21.0054 15.9978 20.7602L16.6813 19.8222L17.737 20.0838C18.635 20.3063 19.5384 19.755 19.7547 18.8523C19.8319 18.5303 19.8127 18.192 19.6995 17.8799L17.6443 12.2113ZM13.0971 15.4948L14.6983 19.3176L15.8983 17.6709L17.7839 18.1381L16.2545 13.9196C15.3752 14.7003 14.2927 15.2554 13.0971 15.4948ZM5.77752 18.1381L7.29885 13.9419C8.18119 14.7176 9.2654 15.2672 10.4618 15.5009L8.86319 19.3176L7.66313 17.6709L5.77752 18.1381ZM11.764 13.7216C9.0602 13.7216 6.87006 11.5231 6.87006 8.81319C6.87006 6.10331 9.0602 3.90476 11.764 3.90476C14.4678 3.90476 16.6579 6.10331 16.6579 8.81319C16.6579 11.5231 14.4678 13.7216 11.764 13.7216Z" fill="white" fill-opacity="0.8"/>
</svg>
