<svg width="24" height="26" viewBox="0 0 24 26" fill="none" xmlns="http://www.w3.org/2000/svg">
<path d="M21.9309 10.708C21.7999 10.412 21.5042 10.2208 21.1777 10.2208H14.3431L17.6352 1.08738C17.7664 0.723096 17.6205 0.317576 17.286 0.117474C16.9514 -0.0827366 16.5208 -0.0221852 16.2559 0.262124L3.21779 14.254C2.9964 14.4915 2.93807 14.8362 3.06921 15.1323C3.20014 15.4283 3.49587 15.6195 3.82241 15.6195H8.26559C8.71987 15.6195 9.08797 15.2551 9.08797 14.8056C9.08797 14.3562 8.71987 13.9918 8.26559 13.9918H5.69942L14.7308 4.29975L12.4018 10.7611C12.3122 11.0103 12.3545 11.2873 12.5086 11.5035C12.6627 11.7198 12.9176 11.8484 13.1851 11.8484H19.3006L10.2704 21.5393L12.5998 15.0791C12.6897 14.8298 12.6515 14.5529 12.4974 14.3366C12.3432 14.1204 12.0926 13.9917 11.8252 13.9917H11.8171C11.4306 13.9917 11.1093 14.2556 11.0221 14.6112L7.36546 24.7526C7.2341 25.1169 7.38004 25.5224 7.71448 25.7225C7.84661 25.8016 7.99376 25.84 8.13971 25.84C8.36328 25.84 8.58434 25.7498 8.74465 25.5778L21.7821 11.5861C22.0036 11.3487 22.0619 11.004 21.9309 10.708Z" fill="white" fill-opacity="0.8"/>
</svg>
