<svg width="24" height="24" viewBox="0 0 24 24" fill="none" xmlns="http://www.w3.org/2000/svg">
<path d="M5.38149 11.5958L11.8584 6.04561L18.3353 11.5958C18.5415 11.7644 18.8055 11.8456 19.0707 11.822C19.336 11.7985 19.5815 11.6721 19.7548 11.4698C19.928 11.2675 20.0153 11.0055 19.9978 10.7398C19.9803 10.474 19.8596 10.2257 19.6613 10.0478L12.5214 3.92791C12.3368 3.76926 12.1014 3.68202 11.858 3.68202C11.6146 3.68202 11.3792 3.76926 11.1946 3.92791L4.05469 10.0478C3.84994 10.2239 3.72343 10.4741 3.70294 10.7434C3.68245 11.0127 3.76966 11.2791 3.94541 11.4841C4.12117 11.6892 4.3711 11.8161 4.64035 11.837C4.9096 11.858 5.17616 11.7712 5.38149 11.5958Z" fill="white" fill-opacity="0.8"/>
<path d="M12.5214 12.0878C12.3368 11.9292 12.1014 11.8419 11.858 11.8419C11.6146 11.8419 11.3792 11.9292 11.1946 12.0878L4.05469 18.2078C3.84994 18.3838 3.72343 18.634 3.70294 18.9033C3.68245 19.1726 3.76966 19.439 3.94541 19.644C4.12117 19.8491 4.3711 19.976 4.64035 19.9969C4.9096 20.0179 5.17616 19.9311 5.38149 19.7557L11.8584 14.2055L18.3353 19.7557C18.5415 19.9243 18.8055 20.0055 19.0707 19.9819C19.336 19.9584 19.5815 19.832 19.7548 19.6297C19.928 19.4275 20.0153 19.1654 19.9978 18.8997C19.9803 18.6339 19.8596 18.3856 19.6613 18.2078L12.5214 12.0878Z" fill="white" fill-opacity="0.8"/>
</svg>
