<svg width="20" height="15" viewBox="0 0 20 15" fill="none" xmlns="http://www.w3.org/2000/svg">
<path d="M19.1 1.84663C18.4175 2.14238 17.7123 2.34713 16.9615 2.43813C17.735 1.98313 18.3265 1.25513 18.5995 0.367879C17.8715 0.800129 17.0753 1.09588 16.2335 1.27788C15.551 0.549879 14.5728 0.0948792 13.5035 0.0948792C11.4333 0.0948792 9.77252 1.77838 9.77252 3.82588C9.77252 4.12163 9.79527 4.39463 9.86353 4.66763C6.76953 4.53113 4.03952 3.02963 2.19677 0.777379C0.877275 3.14338 2.35602 5.09988 3.33427 5.75963C2.74277 5.75963 2.15127 5.57763 1.65077 5.30463C1.65077 7.14738 2.94752 8.67163 4.63102 9.01288C4.26702 9.12663 3.44802 9.19488 2.94752 9.08113C3.42527 10.5599 4.81302 11.6519 6.42827 11.6746C5.15427 12.6756 3.28877 13.4719 0.900024 13.2216C2.56077 14.2909 4.51727 14.9051 6.63302 14.9051C13.5035 14.9051 17.2345 9.21763 17.2345 4.30363C17.2345 4.14438 17.2345 3.98513 17.2118 3.82588C17.9853 3.25713 18.6223 2.59738 19.1 1.84663Z" fill="white" fill-opacity="0.7"/>
</svg>
